<?xml version="1.0" encoding="UTF-8" standalone="no"?>
<svg
   xmlns:dc="http://purl.org/dc/elements/1.1/"
   xmlns:cc="http://creativecommons.org/ns#"
   xmlns:rdf="http://www.w3.org/1999/02/22-rdf-syntax-ns#"
   xmlns:svg="http://www.w3.org/2000/svg"
   xmlns="http://www.w3.org/2000/svg"
   xmlns:sodipodi="http://sodipodi.sourceforge.net/DTD/sodipodi-0.dtd"
   xmlns:inkscape="http://www.inkscape.org/namespaces/inkscape"
   version="1.0"
   width="900"
   height="600"
   viewBox="0 0 900 600"
   enable-background="new 0 0 900 600"
   xml:space="preserve"
   id="svg4308"
   inkscape:version="0.48.1 "
   sodipodi:docname="Flag_of_Iraq.svg"><metadata
   id="metadata4326"><rdf:RDF><cc:Work
       rdf:about=""><dc:format>image/svg+xml</dc:format><dc:type
         rdf:resource="http://purl.org/dc/dcmitype/StillImage" /></cc:Work></rdf:RDF></metadata><defs
   id="defs4324" /><sodipodi:namedview
   pagecolor="#ffffff"
   bordercolor="#666666"
   borderopacity="1"
   objecttolerance="10"
   gridtolerance="10"
   guidetolerance="10"
   inkscape:pageopacity="0"
   inkscape:pageshadow="2"
   inkscape:window-width="1440"
   inkscape:window-height="838"
   id="namedview4322"
   showgrid="false"
   inkscape:zoom="0.435"
   inkscape:cx="410.54332"
   inkscape:cy="320.43344"
   inkscape:window-x="-8"
   inkscape:window-y="-8"
   inkscape:window-maximized="1"
   inkscape:current-layer="svg4308" />

<rect
   id="rect3"
   fill="#CE1126"
   width="900"
   height="200" />
<rect
   id="rect5"
   y="200"
   fill="#FFFFFF"
   width="900"
   height="200" />
<rect
   id="rect7"
   y="400"
   width="900"
   height="200" />
<g
   id="g9"
   transform="matrix(1.56563, 0, 0, 1.70255, -158.738, -207.314)"
   style="fill:#007a3d;fill-opacity:1">
	<g
   id="g4314"
   style="fill:#007a3d;fill-opacity:1">
		<g
   transform="scale(2)"
   id="g4316"
   style="fill:#007a3d;fill-opacity:1">
			
			<path
   fill="#009E60"
   d="     M138.086,170.796l-1.652-1.667l1.667-1.652l1.667-1.652l1.652,1.667l1.652,1.667l-1.667,1.652l-1.667,1.652L138.086,170.796z      M126.746,169.959c-0.594-0.217-1.558-0.932-2.19-1.623c-1.191-1.303-1.462-1.911-0.662-1.483     c1.193,0.639,3.556,1.054,4.397,0.774c3.102-1.036,3.807-5.177,1.33-7.804c-0.486-0.515-0.884-1.114-0.884-1.331     c0-0.217,0.517-0.623,1.148-0.902c0.884-0.391,1.316-0.817,1.882-1.856c0.574-1.055,0.81-1.285,1.086-1.056     c0.394,0.327,1.725,3.503,1.725,4.117c0,0.324,0.481,0.395,2.658,0.395h2.658l-0.415-0.996c-0.228-0.547-0.604-1.284-0.835-1.637     c-0.374-0.572-0.376-0.673-0.017-0.929c0.221-0.158,0.957-0.676,1.636-1.151c0.678-0.475,1.312-1.072,1.407-1.327     c0.235-0.632,1.705-2.455,1.978-2.455c0.121,0,0.221,1.911,0.221,4.247v4.247h16.591h16.59v-6.084v-6.084l-0.923-0.571     l-0.923-0.571l-0.935,0.713l-0.935,0.713v4.349v4.348h-13.936c-7.666,0-13.937-0.048-13.937-0.106     c0-0.093,6.935-9.459,7.783-10.512c0.176-0.219,0.612-0.816,0.968-1.327c0.356-0.511,0.719-0.989,0.805-1.062     c0.088-0.073,0.447-0.551,0.801-1.062c0.353-0.511,0.765-1.069,0.916-1.239c0.151-0.171,2.663-3.538,5.583-7.483     c2.92-3.945,5.396-7.18,5.504-7.189c0.107-0.009,0.259,0.313,0.338,0.714c0.438,2.222,0.774,3.466,1.121,4.15     c0.444,0.875,0.184,1.202-0.989,1.238c-0.555,0.017-1.834,1.587-7.831,9.615c-3.942,5.277-7.207,9.689-7.256,9.805     c-0.049,0.116,3.505,0.211,7.897,0.211h7.986l0.004-2.854c0.002-1.569,0.092-2.977,0.199-3.128     c0.501-0.706,5.781-4.395,6.149-4.297c0.229,0.061,1.641,1.043,3.138,2.182l2.721,2.072v8.853v8.853h-23.055h-23.055     l-0.463,1.712c-0.556,2.052-1.465,3.532-2.686,4.368C130.888,170.304,128.283,170.522,126.746,169.959z M184.217,149.654     c0-9.637,0.087-13.847,0.288-13.972c0.158-0.098,0.845,0.406,1.526,1.12c0.681,0.714,1.895,1.861,2.699,2.548     c1.268,1.086,1.4,1.286,1.009,1.524c-1.307,0.794-1.274,0.544-1.274,9.705v8.608h2.541c2.256,0,2.673-0.077,3.716-0.689     c1.295-0.759,1.381-0.659,0.74,0.856c-0.24,0.565-0.508,1.685-0.598,2.488l-0.162,1.46l-5.243,0.072l-5.242,0.072V149.654z"
   id="path4318"
   style="fill:#007a3d;fill-opacity:1" />
			<path
   fill="#009E60"
   d="M211.666,159.855c0.139-3.881,0.54-5.198,1.964-6.448c1.096-0.962,2.664-1.418,4.479-1.301l1.359,0.088     l0.082-1.588c0.103-2.012-0.079-2.73-0.748-2.943c-0.803-0.255-0.639-1.089,0.334-1.696c0.476-0.297,1.642-1.326,2.59-2.287     c0.948-0.961,1.818-1.747,1.932-1.747s0.208,3.837,0.208,8.527v8.528h1.865h1.865v-8.775c0-7.622-0.055-8.83-0.419-9.194     c-0.23-0.23-0.53-0.419-0.666-0.419c-0.598,0-0.175-1.067,0.618-1.562c0.477-0.297,1.636-1.32,2.578-2.274     c0.941-0.954,1.811-1.673,1.932-1.598c0.121,0.075,0.22,5.465,0.22,11.979v11.843h1.865h1.865v-12.127v-12.126l-0.666-0.579     c-0.366-0.318-0.666-0.724-0.666-0.901c0-0.177,0.829-0.991,1.842-1.81c1.013-0.819,2.1-1.851,2.416-2.295     c1.36-1.911,1.338-2.196,1.338,16.647v17.454h-14.155h-14.155L211.666,159.855z M219.602,157.257v-1.732h-1.045     c-1.403,0-2.685,1.218-2.685,2.552v0.912h1.865h1.865V157.257z M242.786,149.417c0-9.674,0.087-13.901,0.289-14.026     c0.159-0.098,0.849,0.408,1.532,1.125c0.684,0.717,1.902,1.868,2.708,2.558c1.273,1.09,1.406,1.291,1.013,1.53     c-1.312,0.797-1.279,0.547-1.279,9.743v8.642h2.603c2.361,0,2.697-0.064,3.618-0.69c0.559-0.379,1.081-0.624,1.161-0.544     c0.08,0.08-0.064,0.66-0.321,1.289c-0.257,0.629-0.542,1.803-0.633,2.609l-0.166,1.466l-5.263,0.072l-5.263,0.072V149.417z      M221.812,134.919c-0.47-0.172-1.01-0.477-1.199-0.677c-0.29-0.306-0.146-0.336,0.908-0.185c1.894,0.27,3.055-0.051,4.111-1.14     l0.929-0.956l1.291,0.458c0.71,0.252,1.452,0.396,1.65,0.32c0.512-0.197,1.44-1.668,1.347-2.136     c-0.113-0.571,0.411-0.484,0.735,0.121c0.636,1.188,0.105,2.695-1.11,3.154c-0.595,0.225-1.17,0.231-2.134,0.025     c-1.184-0.254-1.378-0.227-1.897,0.259C225.279,135.252,223.511,135.541,221.812,134.919z M225.038,130.525     c-0.642-0.438-1.997-2.683-2.048-3.397c-0.045-0.612,0.064-0.799,0.499-0.862c0.762-0.109,1.114,0.398,1.7,2.449     C225.668,130.389,225.624,130.924,225.038,130.525z"
   id="path4320"
   style="fill:#007a3d;fill-opacity:1" />
		</g>
	</g>
</g>
</svg>