<?xml version="1.0" encoding="UTF-8"?>
<svg xmlns="http://www.w3.org/2000/svg" xmlns:xlink="http://www.w3.org/1999/xlink" width="750" height="500">
<rect fill="#ed1c24" width="750" height="500"/>
<rect fill="#fff" y="125" width="750" height="250"/>  
<path fill="#00a651" d="M 371.5894,125 L 367.48923,131.82971 C 365.23424,135.58667 359.77095,141.22582 355.36568,144.35086 C 350.96038,147.47587 345.65053,152.12902 343.53712,154.69298 L 339.67293,159.34371 L 343.7731,158.27045 C 346.0193,157.67697 348.94553,156.72619 350.29208,156.15649 C 351.63866,155.5868 352.74038,155.90369 352.74039,156.87202 C 352.74039,156.89794 352.74241,156.9426 352.74039,156.96957 C 352.73501,157.02414 352.72414,157.1063 352.7109,157.16471 C 352.11704,159.57379 345.07973,165.09473 339.49593,167.40926 C 334.15146,169.6246 326.22769,175.40853 325.18957,177.71886 C 325.16495,177.77614 325.14633,177.86127 325.13056,177.914 C 325.12345,177.94 325.10593,177.98676 325.10108,178.01158 C 325.09701,178.03597 325.10283,178.08598 325.10108,178.10913 C 325.10076,178.11674 325.10113,178.13422 325.10108,178.14166 C 325.10104,178.14805 325.10085,178.1679 325.10108,178.17419 C 325.10153,178.18043 325.10038,178.20056 325.10108,178.20673 C 325.10203,178.21279 325.09987,178.23324 325.10108,178.23924 C 325.10683,178.26294 325.12101,178.31429 325.13056,178.33678 C 325.13846,178.35348 325.15008,178.38588 325.16007,178.40184 C 325.16363,178.4071 325.18579,178.42921 325.18957,178.43436 C 325.1976,178.44457 325.21014,178.457 325.21907,178.46688 C 325.22376,178.47176 325.24366,178.49462 325.24857,178.49942 C 325.26906,178.51828 325.31311,178.54686 325.33704,178.56447 C 325.96288,179.00148 327.68523,179.0679 329.67323,178.62952 C 333.16029,177.86055 334.59782,178.33785 335.74974,180.71094 C 337.51178,184.34095 336.50178,185.97959 332.446,185.97958 C 327.54088,185.97958 320.55869,190.90561 319.61452,195.05336 C 318.98143,197.83436 316.30535,200.10252 310.55873,202.72863 C 301.17658,207.01608 289.069,215.20198 288.22899,217.72148 C 288.20778,217.79159 288.20219,217.8884 288.1995,217.94915 C 288.1995,221.52056 296.10175,221.27153 307.54996,217.3312 C 310.11671,216.44775 311.24822,217.34739 313.18401,221.75426 C 315.58034,227.20948 315.54246,227.34308 309.96878,234.53558 C 306.07646,239.55839 302.65426,242.14861 298.93664,242.92638 C 291.52983,244.47591 289.22773,245.98023 279.61569,255.57762 C 275.01567,260.17054 270.39824,263.97128 269.35048,264.00093 C 268.93968,264.01254 268.66679,264.07478 268.52456,264.19604 C 268.51993,264.20036 268.49937,264.22415 268.49506,264.22858 C 268.49102,264.23308 268.4693,264.25648 268.46555,264.26108 C 268.46237,264.26592 268.43896,264.28869 268.43607,264.29362 C 268.43344,264.29866 268.43839,264.321 268.43607,264.32616 C 268.43398,264.33139 268.40834,264.3533 268.40656,264.35868 C 268.40503,264.36413 268.40782,264.38561 268.40656,264.39119 C 268.40559,264.39686 268.40726,264.41795 268.40656,264.42372 C 268.40611,264.42956 268.40674,264.45028 268.40656,264.45625 C 268.40672,264.4683 268.40538,264.50883 268.40656,264.52127 C 268.4074,264.52757 268.40545,264.5474 268.40656,264.55381 C 268.41197,264.57973 268.42669,264.62407 268.43607,264.65136 C 268.44125,264.6652 268.45942,264.70229 268.46555,264.71641 C 268.47215,264.7307 268.4875,264.76686 268.49506,264.78146 C 269.26823,266.20384 274.34218,269.00938 277.19685,269.00938 C 279.28601,269.00938 284.37728,266.62115 288.49447,263.70823 C 295.7199,258.59626 296.0772,258.51969 298.99564,261.43165 C 300.65861,263.09095 302.03391,266.30774 302.03391,268.55406 C 302.03391,271.97807 300.1939,273.54305 290.70679,278.37585 C 283.68739,281.95156 275.44388,288.09752 268.99653,294.5395 C 260.33115,303.19765 257.87276,304.79483 254.18869,304.19866 C 251.86271,303.82227 250.56213,303.66523 250.1475,303.90596 C 250.13424,303.91477 250.09969,303.92864 250.08849,303.93848 C 250.08343,303.94367 250.06359,303.96555 250.059,303.97098 C 250.05494,303.9767 250.03306,303.99756 250.02953,304.00353 C 250.01427,304.03475 250.00273,304.09546 250.00001,304.13362 C 249.99743,304.57685 250.77987,305.48129 252.18283,307.0281 C 253.51125,308.49276 256.59424,309.69498 259.0263,309.69496 C 265.66119,309.69496 286.63455,301.87782 293.0961,297.01119 C 299.09513,292.49294 304.92746,291.62158 309.76229,294.47445 C 317.24218,298.88806 304.73452,307.77562 281.17907,314.80099 C 272.5137,317.38539 265.00517,319.90053 264.04088,320.52493 C 264.02695,320.53457 263.99238,320.5488 263.98191,320.55744 C 263.97756,320.56152 263.95585,320.58617 263.9524,320.58997 C 263.94918,320.59403 263.926,320.61827 263.92291,320.6225 C 263.91993,320.62683 263.92579,320.65058 263.92291,320.655 C 263.58568,321.2134 264.08363,322.68336 265.10282,324.03734 C 267.56232,327.30474 279.93914,327.4624 290.50031,324.33007 C 294.72709,323.07644 305.25352,318.81768 313.89197,314.89854 C 329.56051,307.78998 329.61862,307.80238 335.10079,310.67062 C 347.83892,317.33512 346.66203,328.99695 331.35458,348.16901 C 324.68834,356.51829 318.77379,360.24227 308.02193,362.86914 C 304.04413,363.84098 295.86888,371.54387 295.86888,374.31706 C 295.86888,374.59078 295.92224,374.80683 295.98688,375 L 298.73017,375 C 299.33268,374.55986 299.94788,373.92558 300.55902,373.11371 C 303.94827,368.61116 310.78354,365.60742 317.69715,365.56852 C 325.20934,365.52621 334.41224,361.40108 341.32478,354.9662 C 347.39788,349.31276 353.49853,347.62755 358.10897,350.34801 C 360.66315,351.85513 362.98695,352.00551 366.07333,350.83583 C 371.5617,348.75594 374.27367,349.76128 374.27368,353.86043 C 374.27368,355.70383 376.20528,358.17643 378.84584,359.68195 C 381.37051,361.12138 385.87538,364.64458 388.84554,367.51985 C 391.10768,369.70971 392.75598,370.70983 393.62417,370.70705 C 393.65729,370.70617 393.71134,370.71101 393.74214,370.70705 C 393.76482,370.70353 393.8093,370.71232 393.83064,370.70705 C 393.84459,370.70315 393.87628,370.67918 393.88963,370.67456 C 393.90268,370.66952 393.9362,370.64779 393.94863,370.64201 C 393.9851,370.62351 394.03556,370.6022 394.06661,370.57695 C 394.07166,370.57257 394.09123,370.54902 394.09613,370.54445 C 394.10084,370.53968 394.12105,370.51689 394.12563,370.51192 C 394.13003,370.50679 394.15084,370.48471 394.15512,370.47939 C 394.15923,370.47389 394.18064,370.45256 394.18463,370.44687 C 394.19604,370.42923 394.20407,370.40115 394.21412,370.38182 C 394.22052,370.36858 394.23785,370.33077 394.24361,370.31678 C 394.24907,370.30244 394.26827,370.26683 394.27311,370.25173 C 394.27992,370.2286 394.29721,370.17898 394.3026,370.15417 C 394.30918,370.12038 394.29854,370.06075 394.3026,370.02409 C 394.39078,369.06124 393.64483,367.1233 391.91328,364.3977 C 390.89558,362.79575 390.37728,361.19907 390.52692,360.39745 C 390.5349,360.3589 390.54508,360.30194 390.5564,360.26736 C 390.56119,360.25384 390.58058,360.21517 390.58591,360.20232 C 390.58871,360.19605 390.58296,360.17586 390.58591,360.16978 C 390.58897,360.16387 390.61219,360.14302 390.61541,360.13726 C 390.63214,360.10937 390.65418,360.06315 390.67439,360.03969 C 390.67858,360.03518 390.69957,360.01149 390.70388,360.00718 C 390.71727,359.99475 390.74825,359.98539 390.76288,359.97464 C 390.76791,359.97126 390.7868,359.94545 390.79238,359.94212 C 390.80467,359.93563 390.83689,359.91578 390.85137,359.90959 C 391.8097,359.53895 396.88796,359.72793 402.44396,360.36492 C 412.21712,361.48536 413.40178,362.07281 419.16913,368.75571 C 422.01728,372.05595 424.3544,374.12924 426.24858,375 L 430.17177,375 C 431.00815,374.62338 431.59819,374.07779 431.73514,373.5365 C 431.73853,373.52188 431.76194,373.48609 431.76463,373.47145 C 431.76818,373.4495 431.76266,373.39585 431.76463,373.37389 C 431.7656,373.35927 431.76436,373.32345 431.76463,373.30887 C 431.76454,373.29427 431.76543,373.25839 431.76463,373.24381 C 431.76435,373.24016 431.76511,373.21506 431.76463,373.21127 C 431.76338,373.20343 431.76665,373.18718 431.76463,373.17876 C 431.42873,372.05637 425.64168,366.55076 418.69718,360.75519 C 402.91412,347.58339 400.49412,342.76991 400.43812,324.52519 C 400.40464,313.61417 400.92253,310.81952 403.47638,308.00377 C 407.45473,303.61748 409.64001,303.72349 419.40513,308.81682 C 426.77957,312.66325 429.07058,312.98446 445.83503,312.62197 C 463.83904,312.23268 464.36594,312.34511 473.41535,317.66295 C 478.48751,320.64355 484.68418,324.63509 487.22027,326.54159 C 492.81882,330.75025 498.50377,331.04644 499.84526,327.19204 C 501.42953,322.64012 490.78645,313.81125 470.79005,303.15794 C 450.90531,292.56409 448.82248,289.60175 457.98807,284.78274 C 463.20127,282.04186 463.56238,282.09382 471.82247,286.70158 C 478.44389,290.39522 481.47221,291.1893 485.71588,290.31159 L 491.14347,289.17329 L 479.19688,279.38403 C 472.62816,274.00125 466.274,268.29103 465.06751,266.66778 C 461.579,261.97415 454.83171,258.8624 448.19485,258.86237 C 445.08486,258.86237 442.17967,258.26622 441.38088,257.52895 C 441.35503,257.50386 441.31328,257.45681 441.29238,257.43138 C 441.28747,257.42502 441.26749,257.40527 441.26289,257.39888 C 441.25436,257.38602 441.24064,257.34673 441.2334,257.33383 C 439.36676,254.00381 444.9881,252.42254 460.67236,251.80499 C 481.80242,250.97306 484.70927,248.51095 470.1411,243.8045 C 464.32389,241.92516 455.60723,239.54684 450.76113,238.50331 C 444.8523,237.23094 441.57673,235.84379 440.76143,234.24288 C 440.67201,234.06041 440.61099,233.84652 440.58447,233.65747 C 440.56733,233.51792 440.56773,233.34553 440.58447,233.20217 C 440.65679,232.65841 440.97979,232.08331 441.52838,231.47848 C 442.52068,230.3844 447.2617,230.50644 455.33328,231.86874 C 464.38118,233.39587 469.33382,233.73793 470.2296,232.68182 C 471.16155,231.46734 466.99168,228.44357 457.78158,223.34787 C 449.39027,218.70516 438.80009,211.19172 433.97697,206.43619 C 429.19737,201.72357 422.09765,196.36311 418.22522,194.53298 C 413.11412,192.11745 411.45897,190.47841 412.11919,188.58137 C 413.27098,185.27216 421.31344,185.23852 426.51407,188.51633 C 428.62745,189.84833 434.16512,190.92315 438.81458,190.89046 L 447.28043,190.8254 L 441.67586,188.54886 C 436.07797,186.27848 420.85055,175.44771 419.67059,173.00313 C 419.64894,172.95483 419.62138,172.88169 419.61161,172.84052 C 419.60865,172.82462 419.61259,172.79017 419.61161,172.77548 C 419.61161,172.77102 419.61114,172.74734 419.61161,172.74295 C 419.61253,172.73858 419.61023,172.71475 419.61161,172.71044 C 419.61388,172.70618 419.63837,172.68211 419.6411,172.67789 C 419.64747,172.66957 419.66247,172.65353 419.67059,172.64536 C 419.67511,172.64133 419.69516,172.61688 419.70011,172.61286 C 420.32294,172.15285 423.83436,171.95627 428.04795,172.19008 L 436.51377,172.67789 L 424.33123,163.27892 C 415.39329,156.39189 409.88532,153.42734 403.59436,152.0912 C 398.88,151.0899 393.47536,149.89966 391.58882,149.45688 C 386.53638,148.27101 378.05152,139.42769 374.59816,131.73216 L 371.5894,125 z M 343.8321,172.41771 C 344.01638,172.411 344.2183,172.41771 344.42205,172.41771 C 345.99271,172.41771 347.13417,172.80064 347.60779,173.3934 C 347.61846,173.40728 347.65688,173.44429 347.66678,173.45844 C 347.67636,173.47271 347.68748,173.50897 347.69629,173.52348 C 347.74698,173.61119 347.79103,173.72049 347.81428,173.81617 C 347.81951,173.84027 347.84031,173.88921 347.84379,173.91375 C 347.84762,173.94668 347.84317,174.01008 347.84379,174.04385 C 347.84363,174.0693 347.84576,174.11553 347.84379,174.1414 C 347.83945,174.18476 347.82379,174.25951 347.81428,174.30399 C 347.80794,174.33083 347.793,174.37438 347.78479,174.40159 C 347.45666,175.48689 345.68782,177.46612 343.8321,178.82465 C 342.41343,179.86318 341.56673,180.42836 341.08882,180.35319 C 341.05613,180.34637 341.00023,180.33377 340.97083,180.32069 C 340.9565,180.31331 340.92536,180.29709 340.91183,180.28816 C 340.88552,180.26869 340.84668,180.21655 340.82334,180.19057 C 340.50059,179.79748 340.43986,178.74153 340.43986,176.87328 C 340.43986,173.45333 341.06792,172.51844 343.8321,172.41771 z M 384.92234,176.64564 C 384.95942,176.64511 384.97338,176.64564 385.01084,176.64564 C 387.40831,176.64564 389.02026,177.7669 389.34701,179.63769 C 389.75173,181.95475 388.78963,182.59726 385.01084,182.59724 C 382.88528,182.59724 381.6544,182.37611 381.05814,181.78419 C 380.61603,181.32378 380.53029,180.63331 380.70418,179.63769 C 381.02584,177.79611 382.58715,176.67922 384.92234,176.64564 z M 372.88731,177.65384 C 374.9707,177.49167 375.80757,178.72423 375.80757,181.36138 C 375.80757,184.53569 374.59353,185.52514 368.87562,186.98777 C 365.26874,187.91042 361.96142,188.33444 361.26522,187.99599 C 361.24903,187.98726 361.21917,187.9731 361.20623,187.96345 C 361.20228,187.96012 361.18031,187.93437 361.17673,187.9309 C 359.19725,185.74848 360.93228,182.94762 365.86685,180.35319 C 369.04115,178.68427 371.31763,177.77603 372.88731,177.65384 z M 400.58563,177.68637 C 403.63815,177.58548 404.02382,179.02783 402.53244,183.31274 C 402.01933,184.78705 399.89459,185.97959 397.81283,185.97958 C 394.76681,185.97958 394.11383,185.24293 394.50908,182.17445 C 394.86076,179.44439 396.20231,178.20038 399.22871,177.81645 C 399.73024,177.75282 400.1804,177.69975 400.58563,177.68637 z M 353.8613,185.97958 C 353.96633,185.97054 354.08619,185.97958 354.18578,185.97958 C 357.88816,185.97958 355.57918,192.96184 350.82304,196.15911 C 346.5877,199.00624 342.08643,200.22834 340.82334,199.11867 C 340.81763,199.11341 340.7994,199.09147 340.79384,199.08613 C 340.71241,199.00456 340.63598,198.89783 340.58736,198.79343 C 340.58117,198.7793 340.56343,198.74291 340.55785,198.72837 C 340.54997,198.70628 340.53485,198.65384 340.52838,198.63081 C 340.52434,198.61523 340.50226,198.58176 340.49886,198.56578 C 340.49427,198.54148 340.50203,198.49341 340.49886,198.4682 C 340.49436,198.42563 340.46978,198.35078 340.46937,198.30558 C 340.46946,198.29642 340.46913,198.28232 340.46937,198.27306 C 340.57191,194.45928 349.48628,186.35633 353.8613,185.97958 z M 388.63905,202.14325 C 390.40284,201.9303 391.52108,203.86448 390.91039,207.41188 C 390.57034,209.3871 388.80713,210.75018 386.16126,211.0869 C 384.13912,211.34423 382.89271,211.25396 382.41506,210.69662 C 382.4106,210.69119 382.38986,210.66966 382.38556,210.66411 C 382.3647,210.63597 382.34391,210.59691 382.32654,210.56653 C 382.3199,210.55421 382.30314,210.51419 382.29704,210.50151 C 382.29416,210.49507 382.27032,210.4755 382.26755,210.46898 C 382.25443,210.4359 382.24769,210.37426 382.23806,210.3389 C 382.0022,209.39217 382.97338,207.6318 385.12883,204.77755 C 386.37616,203.12585 387.61562,202.26677 388.63905,202.14325 z M 374.80463,202.92376 C 374.89034,202.91714 374.96793,202.92376 375.04063,202.92376 C 378.58318,202.92376 379.1563,206.0433 375.95506,207.93222 C 374.47765,208.80399 373.04246,209.45526 372.56283,209.52583 C 372.54715,209.52757 372.51713,209.55813 372.50383,209.55835 C 372.49174,209.55781 372.45445,209.52794 372.44483,209.52583 C 372.17792,209.43292 370.22208,208.80317 368.10868,208.09485 L 364.27399,206.79395 L 368.61013,204.84259 C 370.84115,203.84621 373.5191,203.02318 374.80463,202.92376 z M 404.62678,206.82647 C 406.30104,206.73767 408.11318,207.06262 409.87736,207.80213 C 413.07903,209.14423 413.70137,210.30778 413.09262,213.81879 C 412.26597,218.58655 409.66263,219.12223 400.7626,216.2905 C 396.39047,214.89939 395.9408,214.23137 397.34086,211.34707 C 398.67656,208.59538 401.43047,206.99596 404.62678,206.82647 z M 338.611,207.99725 C 338.71137,207.99622 338.80294,207.99725 338.90599,207.99725 C 345.38245,207.99725 346.27592,209.12315 343.12417,213.26592 C 342.06744,214.65484 340.06092,216.76963 338.6405,217.94915 C 336.46978,219.75168 335.80434,219.56039 334.42235,216.71328 C 332.77734,213.3244 332.26419,211.09502 333.06546,209.75349 C 333.80563,208.55586 335.62505,208.02834 338.611,207.99725 z M 321.56135,210.85925 C 324.32364,210.78437 326.02578,212.08882 328.22783,215.86772 L 331.32509,221.20137 L 326.69395,222.9901 C 322.46713,224.61469 321.75575,224.30828 318.2576,219.38014 C 316.05274,216.2739 315.20936,214.21378 315.80933,212.90817 C 315.86455,212.79306 315.93741,212.65434 316.01581,212.5504 C 316.03589,212.52466 316.08276,212.47793 316.10429,212.45284 C 316.12632,212.42799 316.16929,212.37947 316.19278,212.35526 C 316.98377,211.56433 318.57554,211.1347 321.0009,210.92431 C 321.19519,210.90742 321.3772,210.86424 321.56135,210.85925 z M 423.56431,226.82777 C 426.63297,226.57966 429.76584,228.74128 429.31634,232.22648 C 428.74538,236.65337 423.90995,237.93444 419.93607,234.73072 C 417.56286,232.81742 417.47534,232.10833 419.31664,229.33199 C 420.37132,227.74173 421.95691,226.9577 423.56431,226.82777 z M 365.66037,235.121 C 365.77328,235.11378 365.89601,235.121 366.01436,235.121 C 366.27369,235.121 366.51468,235.17589 366.72229,235.25107 C 366.85288,235.30107 366.99646,235.36643 367.10576,235.4462 C 367.13654,235.46961 367.1947,235.51798 367.22375,235.54379 C 367.23807,235.55698 367.26888,235.59502 367.28274,235.60883 C 367.29638,235.62292 367.32853,235.65916 367.34173,235.67388 C 367.35472,235.68885 367.38818,235.72333 367.40072,235.73893 C 367.86886,236.34232 368.03273,237.3758 367.84319,238.79603 C 367.23425,243.35882 364.21271,244.6976 362.91709,240.97503 C 361.76029,237.65136 362.88322,235.29856 365.66037,235.121 z M 346.3099,238.6334 C 347.61008,238.45695 349.74571,239.32129 351.88495,241.10513 C 353.33875,242.31735 353.94113,243.49374 353.92031,244.35738 C 353.91705,244.43708 353.90448,244.54305 353.89079,244.61755 C 353.88146,244.66369 353.87458,244.73619 353.8613,244.78015 C 353.85008,244.81497 353.81598,244.87687 353.8023,244.91024 C 353.78088,244.95974 353.74057,245.02679 353.71383,245.07287 C 353.7046,245.08802 353.69411,245.12312 353.68433,245.13792 C 353.67424,245.15248 353.63597,245.18877 353.62533,245.20296 C 353.57615,245.26579 353.5086,245.3438 353.44833,245.39807 C 353.43467,245.40992 353.40353,245.45172 353.38933,245.46311 C 352.50057,246.151 350.61748,245.98843 348.46323,244.32483 C 346.68313,242.95017 345.20503,241.15303 345.071,240.227 C 345.06913,240.21208 345.07209,240.17645 345.071,240.16197 C 345.07025,240.14773 345.071,240.11067 345.071,240.09691 C 345.071,239.21513 345.52978,238.73928 346.3099,238.6334 z M 377.07598,239.28385 C 377.67637,239.23192 378.29948,239.81978 379.34728,240.97503 C 380.6623,242.42486 382.20696,245.20186 382.76903,247.15428 C 384.11947,251.84559 381.98578,253.80533 377.8134,251.67491 C 373.33369,249.38755 372.2443,245.76724 374.83414,241.69051 C 375.82277,240.13435 376.43683,239.33916 377.07598,239.28385 z M 387.81313,245.65826 C 388.95195,245.50273 390.49728,247.20707 390.88088,250.08131 C 391.10458,251.75752 390.87188,253.18633 390.34992,253.62625 C 390.34494,253.63022 390.32544,253.65499 390.32043,253.65876 C 390.30519,253.66965 390.27709,253.68205 390.26142,253.69131 C 390.24034,253.70288 390.19477,253.71523 390.17293,253.72382 C 390.16741,253.72578 390.149,253.7546 390.14343,253.75636 C 390.13784,253.75792 390.11958,253.75497 390.11394,253.75636 C 390.10255,253.75873 390.06651,253.75476 390.05493,253.75636 C 390.04909,253.75693 390.03132,253.75595 390.02546,253.75636 C 390.01953,253.75654 390.00191,253.75636 389.99594,253.75636 C 387.80101,253.75636 386.54471,251.77716 386.54471,248.26005 C 386.54471,246.57762 387.10674,245.75471 387.81313,245.65826 z M 320.38146,252.42293 C 322.64016,252.42056 324.62211,252.54329 325.92701,252.81321 C 328.08098,253.25872 329.51368,253.87401 330.20419,254.60195 C 330.3501,254.76049 330.48097,254.95113 330.55814,255.12229 C 330.59483,255.20822 330.62713,255.32597 330.64663,255.41499 C 330.68183,255.59372 330.68017,255.8095 330.64663,256.0004 C 330.38939,257.32008 328.49523,258.92996 324.98309,260.78119 C 322.07038,262.31646 317.1422,264.08767 314.00996,264.68387 C 308.80909,265.67389 308.09591,265.30671 305.92758,260.68361 C 304.64213,257.94287 303.60045,255.33494 303.56779,254.82959 C 303.56779,254.82335 303.56725,254.80329 303.56779,254.79706 C 303.56983,254.7846 303.56368,254.74447 303.56779,254.73201 C 303.57033,254.72581 303.59423,254.70571 303.59728,254.69949 C 303.60436,254.68708 303.61772,254.64684 303.62678,254.63446 C 303.63178,254.62826 303.65078,254.60813 303.65628,254.60195 C 304.74325,253.47707 313.75103,252.42988 320.38146,252.42293 z M 424.98018,267.64343 C 431.03685,267.37574 434.30478,271.47211 427.72348,276.55456 C 423.4895,279.82426 417.27249,279.95549 413.41711,276.84727 C 410.64312,274.6109 410.78453,274.29089 415.83589,270.89568 C 419.02986,268.74892 422.27691,267.7629 424.98018,267.64343 z M 447.04443,272.42422 C 447.15173,272.41107 447.27175,272.4246 447.36893,272.42422 C 448.26403,272.42073 450.32961,273.47541 451.97054,274.79838 C 454.89338,277.15477 454.88343,277.3114 451.23313,281.59555 C 449.34379,283.81288 447.4178,285.55161 446.74944,285.69338 C 446.74398,285.69434 446.72527,285.69265 446.71997,285.69338 C 446.71483,285.69389 446.69539,285.69313 446.69046,285.69338 C 446.68573,285.69344 446.66553,285.69359 446.66096,285.69338 C 446.65658,285.69294 446.63564,285.69406 446.63147,285.69338 C 446.14479,285.54423 443.47935,285.12613 440.73193,284.75023 C 437.67553,284.33205 435.74682,283.10041 435.74683,281.59555 C 435.74683,281.5287 435.76388,281.44093 435.77633,281.3679 C 436.26214,278.83489 443.82584,272.8188 447.04443,272.42422 z M 336.10372,279.1889 C 336.38462,279.17316 336.71985,279.1889 337.07713,279.1889 C 341.24162,279.1889 343.53712,282.61672 343.53712,288.84807 C 343.53712,297.22099 338.43208,296.54919 336.0742,287.8724 C 334.02135,280.31797 333.81629,279.31711 336.10372,279.1889 z M 367.81369,281.56305 C 370.32443,281.48336 376.40098,282.88451 377.19396,283.83961 C 377.19763,283.84434 377.22004,283.86743 377.22345,283.87215 C 377.22634,283.87679 377.25036,283.90002 377.25295,283.90464 C 377.25528,283.90928 377.25088,283.93258 377.25295,283.93717 C 377.25475,283.94174 377.28096,283.96513 377.28246,283.9697 C 377.28338,283.9742 377.2818,283.99777 377.28246,284.00222 C 377.28281,284.00666 377.28238,284.03034 377.28246,284.03474 C 377.28222,284.03937 377.28288,284.06238 377.28246,284.06727 C 377.20308,284.71475 375.57778,287.35352 373.62474,289.98634 L 370.02603,294.83219 L 368.13818,288.58788 C 367.20604,285.4739 366.63232,282.66871 366.75178,281.95332 C 366.75292,281.94744 366.75055,281.92633 366.75178,281.92078 C 366.75448,281.91033 366.77818,281.89743 366.78126,281.88824 C 366.78295,281.88399 366.77952,281.85969 366.78126,281.85574 C 366.78503,281.84851 366.8066,281.82914 366.81078,281.82319 C 366.81815,281.81591 366.83187,281.79765 366.84027,281.79069 C 366.84473,281.78731 366.86506,281.76147 366.86978,281.75817 C 366.87476,281.75496 366.89404,281.7613 366.89928,281.75817 C 366.90475,281.75513 366.92307,281.7286 366.92877,281.72565 C 366.94071,281.71993 366.97485,281.6985 366.98776,281.69313 C 367.17513,281.62041 367.46394,281.57414 367.81369,281.56305 z M 352.38642,284.32743 C 352.84125,284.28242 353.55357,284.40034 354.53975,284.55509 C 356.51658,284.86534 358.33646,286.50817 358.63993,288.26265 C 359.00829,290.39236 358.80376,291.87901 358.28594,292.65322 C 358.24511,292.71218 358.18313,292.7979 358.13847,292.84833 C 358.08682,292.90458 358.01778,292.96591 357.96148,293.01093 C 357.94017,293.02727 357.89492,293.06122 357.873,293.076 C 357.76968,293.14239 357.63455,293.20707 357.51902,293.23859 C 357.46916,293.25103 357.39388,293.26515 357.34203,293.27114 C 357.25506,293.27928 357.13898,293.28105 357.04704,293.27114 C 356.02145,293.14075 354.69415,291.86843 353.53683,289.40094 C 352.2029,286.55693 351.59048,285.20878 351.82597,284.65266 C 351.84514,284.61347 351.88592,284.5536 351.91445,284.52259 C 352.01786,284.42244 352.17163,284.3487 352.38642,284.32743 z"/>
</svg>