<?xml version="1.0" encoding="UTF-8"?>
<svg xmlns="http://www.w3.org/2000/svg" width="900" height="600">
<rect width="900" height="600" style="fill:#c1272d"/>
<path d="M 449.96875,200 427.53125,269.28125 354.75,269.34375 413.59375,312.15625 391.15625,381.5 C 406.32078,370.37811 433.78167,350.44542 450,338.6875 L 508.90625,381.46875 486.40625,312.1875 545.25,269.3125 472.53125,269.3125 449.96875,200 z M 449.96875,247.4375 457.125,269.28125 442.875,269.3125 449.96875,247.4375 z M 422.75,283.9375 418.375,297.53125 399.78125,284 422.75,283.9375 z M 438.125,283.9375 461.875,283.9375 469.21875,306.5625 450,320.5625 430.78125,306.5625 438.125,283.9375 z M 477.25,283.9375 500.1875,283.9375 481.65625,297.53125 477.25,283.9375 z M 426.03125,321.25 437.59375,329.59375 419,343.125 426.03125,321.25 z M 474.03125,321.25 481.0625,343.125 462.5,329.625 462.5,329.59375 474.03125,321.25 z" id="star" style="fill:#006233"/>
</svg>
