<?xml version="1.0" encoding="UTF-8"?>
<svg version="1.0" xmlns="http://www.w3.org/2000/svg" width="750" height="500">
	<rect width="750" height="500" fill="#006c35"/>
	<path d="m 323.28125,118.09375 c -.3878,-.0115 -.96797,.20495 -1.78125,.6875 -1.82841,1.22565 -5.45163,5.00055 -5.5625,9.34375 -.11087,2.45028 -.57338,2.44073 1.03125,4 1.15913,1.67116 2.31683,1.5069 4.65625,.28125 1.34359,-.98979 1.79744,-1.62118 2.25,-3.28125 .55738,-2.78392 -2.9295,1.31715 -3.375,-1.78125 -.77915,-2.87665 1.44684,-4.05983 3.5625,-6.84375 .0485,-1.31108 .0719,-2.381 -.78125,-2.40625 z m 34.0625,.1875 c -.65345,.088 -1.45276,.92515 -2.5625,2.9375 -.79526,2.10759 -4.2255,5.2972 -1.75,11.875 2.02493,4.17084 2.85674,10.94854 1.9375,18.5 -1.40303,2.1459 -1.72302,2.88535 -3.5625,5.03125 -2.58434,2.77888 -5.38334,2.06841 -7.53125,1.03125 -2.00681,-1.35265 -3.58379,-2.04691 -4.5,-6.34375 .16531,-6.84893 .56436,-18.05877 -.6875,-20.4375 -1.84554,-3.68401 -4.88726,-2.36276 -6.1875,-1.25 -6.24718,5.71197 -9.3329,15.35682 -11.21875,23.03125 -1.73264,5.59304 -3.5788,3.97552 -4.875,1.71875 -3.15584,-2.9573 -3.3775,-26.08318 -7.1875,-22.28125 -6.10206,17.44034 3.50185,36.54512 10.15625,34.6875 4.80081,1.98765 7.84702,-7.15047 9.8125,-17.15625 1.34457,-2.80811 2.37206,-3.13087 3.0625,-1.6875 -.17741,13.30577 .95406,16.2737 4.375,20.3125 7.6311,5.88736 13.9426,.7459 14.4375,.25 .49491,-.4949 5.9375,-5.9375 5.9375,-5.9375 1.32241,-1.39095 3.06979,-1.47565 4.9375,-.25 1.81528,1.64998 1.58215,4.49219 5.46875,6.46875 3.27076,1.3083 10.25525,.31819 11.875,-2.5 2.18018,-3.73642 2.7088,-5.02034 3.71875,-6.4375 1.55624,-2.07131 4.21875,-1.15415 4.21875,-.5 -.24796,1.1551 -1.81236,2.29462 -.75,4.375 1.85057,1.38792 2.28038,.49593 3.375,.1875 3.87148,-1.85057 6.78125,-10.25 6.78125,-10.25 .17134,-3.13267 -1.61103,-2.89508 -2.75,-2.25 -1.4857,.90815 -1.5768,1.21685 -3.0625,2.125 -1.89292,.28122 -5.55971,1.52988 -7.375,-1.28125 -1.8536,-3.37961 -1.86409,-8.09116 -3.28125,-11.5 0,-.24795 -2.47652,-5.35992 -.1875,-5.6875 1.15511,.21469 3.63916,.85659 4.03125,-1.21875 1.21155,-2.02292 -2.61424,-7.76146 -5.21875,-10.65625 -2.26079,-2.48154 -5.38244,-2.78396 -8.40625,-.25 -2.11767,1.94834 -1.80348,4.12425 -2.21875,6.1875 -.53925,2.36967 -.43618,5.30484 1.96875,8.4375 2.11365,4.16781 5.95347,9.51507 4.6875,17.0625 0,0 -2.23134,3.59167 -6.15625,3.125 -1.63588,-.35681 -4.30159,-1.06483 -5.71875,-11.53125 -1.07243,-7.92238 .26872,-19.02183 -3.09375,-24.21875 -.75911,-1.96107 -1.41091,-3.86544 -2.5,-3.71875 z M 346.5625,119.125 c -1.01713,.0888 -2.14377,1.27348 -3.0625,3.5625 -.78821,1.74071 -1.75099,10.84375 -1.59375,10.84375 -.62896,2.70934 2.83084,3.85743 4.40625,.375 2.36158,-6.38426 2.373,-9.10417 2.53125,-11.8125 -.3679,-2.06274 -1.26412,-3.05758 -2.28125,-2.96875 z m 39.8125,.71875 c -1.04469,.0947 -1.8768,.70635 -2.1875,2.25 -.41629,3.62958 -.20355,5.60321 .40625,8.625 .46769,2.01486 3.40039,5.38835 4.84375,7.34375 6.89601,9.26938 13.53077,18.58337 19.9375,28.21875 1.00715,7.15496 1.74524,14.15431 2.21875,21.125 1.03816,15.28434 1.35371,34.30951 .40625,50.40625 2.86355,.1129 7.45182,-4.62386 9.0625,-11.5625 1.04724,-9.59757 -.37299,-29.18016 -.46875,-34.84375 -.0675,-2.35139 -.21224,-5.15702 -.375,-8.09375 7.45267,12.17923 14.68306,25.08244 21.78125,39.25 2.58738,-1.22968 2.01392,-15.79764 .5,-17.84375 -5.68074,-12.22728 -13.52855,-24.29595 -16.03125,-28.9375 -.90311,-1.67632 -3.97934,-6.35471 -7.625,-11.75 -.67122,-7.6985 -1.40062,-14.21874 -1.875,-16.1875 -1.17224,-8.13808 3.34468,.91775 2.71875,-3.8125 -1.46555,-8.12699 -5.95128,-13.65014 -11.25,-21.09375 -1.70846,-2.42107 -1.67473,-2.91487 -4.3125,.59375 -1.57663,3.57684 -1.55527,6.55256 -1.09375,9.34375 -.69381,-1.00827 -1.55143,-2.20391 -2.78125,-3.6875 -4.57604,-3.9259 -4.85834,-4.14053 -8.65625,-7.34375 -1.19755,-.84982 -3.47761,-2.15787 -5.21875,-2 z m 118,1.21875 c -.50876,-.0791 -1.06309,.17099 -1.6875,1.09375 -1.1934,1.04624 -2.47681,2.94083 -2.4375,5.375 .29027,4.28877 1.05347,8.67998 1.34375,12.96875 .10229,.57392 .2102,1.14482 .3125,1.71875 -.46081,-.58803 -.86314,-1.04689 -1.09375,-1.28125 -8.35982,-8.78215 3.84104,-1.43534 -1.59375,-8.21875 -4.59617,-5.04674 -5.94103,-6.65261 -9.875,-9.6875 -1.97255,-1.27504 -3.1644,-3.71117 -3.8125,.4375 -.25802,3.64469 -.52618,7.86531 -.28125,10.9375 -.0141,1.70744 1.75422,4.92161 3.28125,6.8125 5.57679,6.85166 11.27292,14.1418 17,21.75 1.20515,15.51575 1.52665,29.73895 2.75,45.28125 -.17335,6.64734 -2.21799,15.47592 -4.15625,16.3125 0,0 -2.95993,1.70036 -4.9375,-.1875 -1.43833,-.57755 -7.1875,-9.59375 -7.1875,-9.59375 -2.94316,-2.69825 -4.90551,-1.92717 -7,0 -5.77547,5.57691 -8.3876,16.02309 -12.3125,23.21875 -1.01196,1.60565 -3.86229,2.97239 -7.03125,-.125 -8.04837,-10.99558 -3.34187,-26.64767 -4.34375,-22.625 -7.16846,8.07861 -3.99375,21.46509 -2.375,24.34375 2.36362,4.72823 4.27578,7.75534 8.875,10.09375 4.18898,3.08328 7.45084,1.159 9.25,-1 4.21521,-4.3684 4.27142,-15.53959 6.25,-17.75 1.38794,-4.05997 4.86615,-3.36167 6.5625,-1.5625 1.64396,2.36361 3.58498,3.90137 6,5.1875 3.93194,3.46831 8.62458,4.09839 13.25,.9375 3.16087,-1.77297 5.21193,-4.07719 7.0625,-8.625 1.98565,-5.31063 1.00384,-33.14226 .5625,-48.625 2.96965,4.1831 5.90059,8.45678 8.8125,12.78125 1.27824,13.59127 1.85817,26.97598 1.4375,39.8125 -.30139,2.5521 8.90624,-7.61956 8.84375,-12.4375 -.0415,-4.21579 .008,-8.03665 0,-11.59375 4.46597,7.13063 8.78899,14.38003 12.875,21.71875 2.53195,-1.34156 1.66411,-15.67767 .0625,-17.65625 -4.27807,-7.17855 -9.75668,-14.9363 -14,-20.9375 -.83864,-7.57492 -1.98054,-16.51249 -2.5,-19.25 -.8094,-4.26962 -1.62012,-10.68311 -2.84375,-15.75 -.33567,-1.97859 -1.34875,-8.29847 -1.03125,-8.90625 .49893,-1.41414 2.38419,.0452 3.3125,-1.59375 1.38993,-1.51493 -4.81794,-17.59837 -7.96875,-22.1875 -1.1329,-2.0572 -3.18177,-1.34534 -5.71875,2 -2.35255,2.20133 -1.49183,7.22339 -.59375,12 2.33274,12.17382 4.41494,24.57214 6.0625,36.9375 -3.05009,-4.5343 -6.77246,-10.02127 -10.4375,-15.3125 -.0985,-.51026 -.46875,-2.38032 -.46875,-2.40625 -2e-5,-.21873 -.50509,-9.95896 -.9375,-12.28125 -.0756,-.94243 -.30028,-1.2137 .6875,-1.09375 1.04727,.88094 1.1896,.92846 1.84375,1.21875 1.05732,.19352 1.98178,-1.59397 1.34375,-3.25 -3.27078,-6.0325 -6.54175,-12.0925 -9.8125,-18.125 -.3936,-.38756 -.83499,-.79588 -1.34375,-.875 z m -304.53125,.3125 c -1.8123,-.0518 -3.81177,1.07159 -3.03125,3.25 -.45458,1.18734 3.54746,5.2009 4.25,7.40625 .62996,1.57037 -.62483,6.62707 .6875,7.09375 1.2065,.52312 2.86802,-3.50048 3.5,-7.21875 .34975,-2.03704 .0851,-9.00824 -4.65625,-10.4375 -.24291,-.0549 -.4911,-.0863 -.75,-.0937 z M 546.75,121.4062 c -.41312,.041 -.91624,.70862 -1.6875,2.34375 -1.85464,3.03792 -2.49285,8.47743 -1.75,13.28125 4.46516,30.20283 7.78335,59.44897 8.46875,86.21875 -.38402,2.54101 -.49612,3.89255 -1.6875,7.09375 -2.63577,3.37861 -5.54268,7.61417 -8.28125,9.65625 -2.73757,2.04106 -8.56375,3.98709 -10.46875,5.5 -6.04356,3.4935 -6.07398,7.5111 -1.1875,7.65625 8.42129,-.97769 18.38596,-1.66865 25.25,-12.03125 1.83648,-2.90385 3.999,-10.77581 4.09375,-15.59375 .64204,-28.24741 -.36143,-55.8655 -4.59375,-76.28125 -.27113,-1.98866 -1.14915,-6.55955 -.8125,-7.15625 .54529,-1.39801 3.30053,.13992 4.28125,-1.46875 1.43935,-1.46957 -7.12538,-12.43608 -10.125,-17.125 -.59928,-1.17759 -.96885,-2.14649 -1.5,-2.09375 z m -88.3125,.46875 c -.34774,.06 -.86114,.58925 -1.8125,1.84375 -2.35254,7.69156 -3.17932,13.97339 -2.28125,18.75 6.04259,31.5343 12.23375,60.26289 11.25,90.28125 2.86556,.0191 6.1786,-6.55526 7.59375,-13.0625 .7751,-8.96357 -.51716,-14.41901 -.75,-19.6875 -.23181,-5.26848 -5.96386,-48.01361 -7.125,-52 -1.40102,-7.53735 5.57349,-.99148 4.8125,-5.375 -2.41098,-5.52652 -8.42867,-13.5742 -10.3125,-18.375 -.70808,-1.28575 -.79543,-2.47497 -1.375,-2.375 z m -215.03125,.59375 c -.7426,.12864 -1.45921,.74056 -1.71875,1.75 -.16329,.66121 .28622,1.76113 -.3125,2.09375 -.3437,.34673 -1.64818,.11368 -1.59375,-1.71875 0,-.58359 -.42846,-1.19259 -.6875,-1.5625 -.26005,-.17034 -.43554,-.21875 -.90625,-.21875 -.57352,.0232 -.56052,.17445 -.875,.65625 C 237.17946,123.95961 237,124.44362 237,125 c -.0716,.65214 -.33273,.873 -.8125,.96875 -.53623,0 -.40932,.0584 -.84375,-.21875 -.25803,-.28222 -.5625,-.3932 -.5625,-.875 0,-.49892 -.13107,-1.2954 -.28125,-1.625 -.22778,-.30036 -.58775,-.45667 -1,-.5625 -2.24668,.008 -2.41026,2.58984 -2.28125,3.5625 -.16832,.18344 -.25163,4.75923 2.8125,6.03125 4.11339,1.96144 11.82657,1.13222 11.5,-5.5 1e-5,-.58662 -.12904,-2.55652 -.1875,-3.09375 -.41981,-.9777 -1.1949,-1.34739 -1.9375,-1.21875 z m 55.1875,.0625 c -1.42157,.0725 -2.67655,.47991 -3.75,1.03125 -2.72647,2.61055 -3.36566,6.79569 -1.21875,9.40625 2.08946,.98677 4.17422,3.08986 2.78125,4.25 -5.90874,6.31106 -21.28715,16.85678 -22.0625,18.78125 -.006,.0157 -.0279,.0481 -.0312,.0625 -.002,.0138 1.5e-4,.05 0,.0625 4.7e-4,.006 -10e-4,.0256 0,.0312 .005,.0159 .0214,.0496 .0312,.0625 .004,.004 .0268,.0276 .0312,.0312 .005,.003 .0257,-.003 .0312,0 .006,.003 .0245,.029 .0312,.0312 .007,.002 .0233,-.002 .0312,0 .002,.002 .0286,.029 .0312,.0312 .78147,.52416 10.404,.51176 11.46875,.0312 .008,-.004 .0248,-.0271 .0312,-.0312 .003,-.002 .0286,.002 .0312,0 .002,-.002 -.002,-.0291 0,-.0312 3.30705,-1.21859 19,-19.15625 19,-19.15625 -.81342,-.69647 -1.5626,-1.20977 -2.375,-1.90625 -.87086,-.75393 -.78317,-1.49506 0,-2.25 3.8866,-2.26181 2.65499,-7.2382 .625,-9.5 -1.68275,-.75445 -3.26593,-1.00995 -4.6875,-.9375 z m 144.25,.0625 c -.41312,.041 -.91624,.67737 -1.6875,2.3125 -1.8546,3.03792 -3.1149,8.32825 -2.96875,13.28125 4.01763,27.814 5.24933,52.15374 7.875,79.96875 .21369,2.69019 -.18067,6.59798 -1.96875,8.15625 -6.61407,6.90637 -16.15051,15.42388 -26.53125,19.34375 -1.11679,1.25387 2.77685,6.59879 7.8125,6.59375 8.42132,-.9777 15.82345,-5.7042 22.6875,-18.15625 1.83546,-2.90387 5.0615,-9.11956 5.15625,-13.9375 .64205,-28.24742 -1.42392,-50.20924 -5.65625,-70.625 -.27114,-1.98865 -.0867,-4.3408 .25,-4.9375 .54529,-.65112 2.39427,.0149 3.375,-1.59375 1.43933,-1.46957 -3.84413,-13.65483 -6.84375,-18.34375 -.59928,-1.17759 -.96885,-2.11524 -1.5,-2.0625 z M 219.375,123.4375 c -1.16231,.1359 -2.25568,1.08225 -2.78125,2.34375 -.19454,4.46112 -.2207,8.91987 .28125,13.03125 2.02897,7.21077 2.6715,13.55335 3.65625,20.9375 .27314,9.89088 -5.71166,4.27861 -5.4375,-.625 1.38187,-6.36916 1.00892,-16.39649 -.21875,-18.9375 -.97367,-2.541 -2.10111,-3.16829 -4.46875,-2.75 -1.8798,-.1149 -6.73606,5.17652 -8.09375,13.9375 1e-5,-1e-5 -1.13111,4.49648 -1.625,8.5 -.66423,4.52464 -3.66156,7.72878 -5.75,-.625 -1.80523,-6.07181 -2.91469,-21.03181 -5.9375,-17.53125 -.86582,11.68097 -1.8939,32.23514 8.03125,34.34375 12.00453,1.15409 5.37354,-20.29384 9.71875,-24.1875 .82147,-1.92415 2.34377,-1.95836 2.46875,.46875 0,6.07081 0,12.14795 0,18.21875 -.10986,5.92263 3.78768,7.68261 6.8125,8.90625 3.14778,-.24292 5.23504,-.15687 6.46875,2.90625 .49188,10.50169 1.00813,21.02956 1.5,31.53125 0,0 7.27726,2.09123 7.625,-17.71875 .34876,-11.63158 -2.31633,-21.39344 -.75,-23.65625 .0554,-2.22352 2.9055,-2.33353 4.875,-1.25 3.13771,2.21343 4.52985,4.93736 9.40625,3.84375 7.42042,-2.04409 11.89013,-5.64588 12,-11.34375 -.43342,-5.41463 -1.05977,-10.83537 -3.40625,-16.25 .32759,-.98475 -1.42032,-3.54649 -1.09375,-4.53125 1.33349,2.08845 3.35086,1.91508 3.8125,0 -1.26295,-4.16177 -3.22924,-8.14941 -6.40625,-9.875 -2.62568,-2.31322 -6.46792,-1.82398 -7.875,3 -.65214,5.55877 2.01463,12.14685 6.0625,17.53125 .85977,2.10356 2.06243,5.60222 1.53125,8.75 -2.15397,1.22868 -4.28955,.7175 -6.09375,-1.1875 1e-5,-1e-5 -5.90625,-4.4215 -5.90625,-5.40625 1.56734,-10.03501 .33759,-11.18382 -.53125,-13.96875 -.60677,-3.84427 -2.42862,-5.06182 -3.90625,-7.6875 -1.47764,-1.56633 -3.48197,-1.56633 -4.4375,0 -2.61055,4.52564 -1.38585,14.24249 .5,18.59375 1.36273,4.00253 3.4525,6.5 2.46875,6.5 -.81038,2.26181 -2.50016,1.73555 -3.71875,-.875 -1.7397,-5.39549 -2.09375,-13.43696 -2.09375,-17.0625 -.52212,-4.49439 -1.1042,-14.09507 -4.0625,-16.53125 -.78934,-1.07509 -1.72098,-1.44945 -2.625,-1.34375 z m 42.15625,.0625 c -.59574,.0753 -1.25427,.41445 -2.03125,.59375 -2.5521,.8124 -4.94144,3.01869 -4.1875,7.3125 3.01675,18.33234 4.98325,32.32289 8,50.65625 .46368,2.14691 -1.33598,4.97677 -3.65625,4.6875 -3.94506,-2.669 -4.92424,-8.07457 -11.65625,-7.84375 -4.87337,.0585 -10.43053,5.36154 -11.125,10.46875 -.81239,4.05895 -1.10167,8.46012 0,12 3.42498,4.11842 7.52767,3.67932 11.125,2.75 2.95829,-1.21759 5.39227,-4.13298 6.4375,-3.4375 .003,.003 .0286,-.004 .0312,0 .003,.004 -.003,.027 0,.0312 .64509,1.12755 -.0608,10.66326 -13.9375,18.03125 -8.52813,3.82915 -15.31599,4.74408 -18.96875,-2.21875 -2.26282,-4.35126 .16462,-20.92391 -5.40625,-17.09375 -16.47473,42.46738 38.59755,48.39528 44.75,1.75 .39844,-1.31593 1.61212,-2.63622 2.46875,-2.3125 .3759,.16008 .71998,.67052 .84375,1.625 -1.27706,42.23456 -42.60573,45.13036 -49.625,31.84375 -1.73969,-3.13166 -2.26313,-10.10335 -2.4375,-14.28125 -.31817,-2.52748 -.95237,-3.98541 -1.6875,-4.5625 -1.6745,-1.25817 -3.9247,2.02304 -4.40625,7.71875 -.69647,4.58307 -.5,5.84128 -.5,10.25 2.20437,33.35867 55.38819,19.02573 64.03125,-8.53125 4.27874,-14.24586 -.0871,-24.9929 1.34375,-26.3125 .0124,-.0104 .0493,-.0222 .0625,-.0312 .0136,-.008 .048,-.0242 .0625,-.0312 .0149,-.006 .0467,-.0262 .0625,-.0312 .0487,-.013 .13046,-.0305 .1875,-.0312 5.27958,5.68679 12.68771,.72253 14.3125,-1.25 .69648,-.98677 2.43866,-1.6198 3.65625,-.34375 4.11844,2.9603 11.33689,1.56486 12.84375,-3.65625 .87085,-5.10519 1.60688,-10.36057 1.78125,-15.8125 -2.68268,.83292 -4.84747,1.45661 -5.71875,2.375 -.20749,.22659 -.36097,.47794 -.40625,.75 -.23283,1.50888 -.45467,3.02237 -.6875,4.53125 -.0249,.12473 -.065,.23996 -.125,.34375 -.11434,.18521 -.30336,.35601 -.5,.46875 -.94842,.51783 -2.60222,.22171 -2.6875,-1.15625 -1.27605,-5.80167 -6.52762,-6.55632 -9.71875,2.4375 -2.14691,1.73969 -6.06155,2.0793 -6.46875,-.53125 .52213,-6.03351 -1.90888,-6.84339 -6.78125,-4 -1.56635,-11.9511 -3.12016,-23.36139 -4.6875,-35.3125 2.03099,-.0585 3.89338,1.41402 5.75,-.90625 -2.00919,-6.24869 -6.26068,-18.96318 -8.65625,-20.15625 -.0188,-.009 -.0439,-.024 -.0625,-.0312 -.10876,-.1305 -.23745,-.25071 -.34375,-.34375 -.0442,-.0375 -.1123,-.0933 -.15625,-.125 -.0439,-.0305 -.11251,-.0687 -.15625,-.0937 -.0962,-.0528 -.21644,-.0958 -.3125,-.125 -.2184,-.0619 -.43059,-.091 -.65625,-.0625 z m 164.34375,.0937 c -2.1076,-.0625 -4.43966,1.26571 -3.53125,3.90625 -.52916,1.44034 4.52832,6.32595 5.34375,9 1.46756,4.10835 -1.12079,8.02729 .40625,8.59375 1.40506,.63399 3.35995,-4.2415 4.09375,-8.75 .84767,-3.6447 -1.75249,-11.11411 -5.4375,-12.65625 -.28247,-.0665 -.57391,-.0848 -.875,-.0937 z m -128.03125,4.5 c .95979,-.0978 2.1195,.78407 2.6875,2.03125 .60588,1.33033 .30199,2.6014 -.6875,2.84375 -.98948,.24236 -2.26913,-.63842 -2.875,-1.96875 -.60586,-1.33033 -.30199,-2.63265 .6875,-2.875 .0618,-.0152 .12351,-.0247 .1875,-.0312 z m 237.5,6.15625 c -1.92152,-.0673 -4.01564,1.39162 -3.1875,4.25 -.4818,1.55928 4.10091,6.85521 4.84375,9.75 .66826,2.06023 -1.01699,8.69966 .375,9.3125 1.28109,.6864 3.08177,-4.58731 3.75,-9.46875 .37092,-2.67204 -1.6093,-12.0486 -4.96875,-13.71875 -.25753,-.0719 -.538,-.11538 -.8125,-.125 z m -131.3125,3.25 c .17575,.78356 .3514,1.57235 .46875,2.375 .39382,1.73171 .73331,3.45176 1.09375,5.15625 -1.51689,-2.08871 -2.7725,-3.77628 -3.3125,-4.375 -3.43234,-4.07902 .0773,-2.67864 1.75,-3.15625 z m 30.25,14.875 c -.7426,.12864 -1.4592,.7718 -1.71875,1.78125 -.16329,.6612 .31746,1.72988 -.28125,2.0625 -.3437,.34673 -1.67943,.14492 -1.625,-1.6875 -10e-6,-.5836 -.42846,-1.22383 -.6875,-1.59375 -.26003,-.17035 -.43554,-.21875 -.90625,-.21875 -.57353,.0232 -.56053,.17446 -.875,.65625 -.13304,.49087 -.3125,.97487 -.3125,1.53125 -.0716,.65214 -.30147,.87299 -.78125,.96875 -.53622,0 -.44058,.0584 -.875,-.21875 -.25804,-.28221 -.5625,-.39321 -.5625,-.875 10e-6,-.49893 -.13107,-1.29541 -.28125,-1.625 -.2278,-.30037 -.58776,-.42541 -1,-.53125 -2.24669,.008 -2.37902,2.55859 -2.25,3.53125 -.16834,.18344 -.28288,4.79048 2.78125,6.0625 4.11338,1.96144 11.85783,1.10097 11.53125,-5.53125 10e-6,-.58662 -.16029,-2.55652 -.21875,-3.09375 -.41981,-.9777 -1.1949,-1.34739 -1.9375,-1.21875 z m -138.125,1.375 c -.5072,-.0517 -1.1721,.13451 -1.9375,.59375 -3.63765,1.96749 -5.04608,7.80386 -2.78125,11.21875 2.11567,3.00769 5.46074,1.90625 5.90625,1.90625 3.56405,.4455 5.6875,-6.6875 5.6875,-6.6875 -10e-6,0 .10732,-2.00556 -4.125,1.78125 -1.78102,.33363 -2.02324,-.3096 -2.46875,-1.3125 -.37093,-1.8556 -.29122,-3.73713 .5625,-5.59375 .39436,-1.11313 .002,-1.82014 -.84375,-1.90625 z m 195.25,.90625 c -2.01943,-.0982 -4.16879,1.20953 -4.71875,3.96875 .008,1.62782 .73488,2.52237 .59375,4 -.21065,.84465 -1.08092,1.40007 -3.15625,.40625 .32455,-.29835 -1.34376,-2.65624 -1.34375,-2.65625 -1.61875,-.98576 -3.78041,.0535 -5.1875,.96875 -.7741,1.40708 -1.34668,3.81886 -.46875,6.28125 2.32329,4.2928 10.29281,11.61795 14.09375,11.6875 .0706,-3.87048 .4466,-9.01754 .65625,-12.21875 .0897,-1.20851 .37315,-2.54036 1.53125,-2.84375 1.15711,-.30238 3.16533,1.16415 3.1875,-.0937 -.21066,-2.46239 -.70279,-6.09599 -2.09375,-7.8125 -.71249,-1.05569 -1.88209,-1.62859 -3.09375,-1.6875 z m -161.625,13.46875 c -.0537,.0197 -.10688,.0656 -.15625,.0937 -.0242,.0147 -.0693,.0449 -.0937,.0625 -.40219,.30193 -.87679,.99874 -1.9375,1.75 -1.7891,2.03502 -2.10985,3.45214 -2,7.53125 .10179,.43147 3.39648,9.59194 6.1875,16.03125 1.88183,6.6927 3.62283,14.35576 2.34375,21.59375 -4.40569,9.56835 -13.26318,18.14978 -21.8125,22.8125 -4.35571,1.39502 -8.11745,.91994 -9.125,-.0312 -.008,-.008 -.024,-.0236 -.0312,-.0312 -2.50138,-1.68184 -2.5588,-4.67557 -2.40625,-5.1875 -5e-5,-.003 1.7e-4,-.0277 0,-.0312 .006,-.006 .0255,-.0258 .0312,-.0312 7.21379,-5.02456 15.45445,-9.09144 21.90625,-22.65625 1.90501,-5.18382 2.48664,-8.29638 .59375,-16.3125 -.73791,-2.98677 -1.64938,-5.44462 -3.6875,-7.5625 .005,-.006 .0259,-.0257 .0312,-.0312 1.22799,-.58751 4.41409,1.75968 4.90625,.28125 -.75393,-3.82713 -3.34612,-8.96504 -6.28125,-11.59375 -2.57023,-2.33438 -5.36624,-2.60456 -7.71875,-.46875 -2.64986,1.47461 -3.21354,6.77074 -1.9375,11.40625 1.41716,3.48948 5.24328,4.10171 7.96875,11.125 -5e-5,.007 -2.4e-4,.0289 0,.0312 .0568,.44036 .93536,5.24244 -.4375,7.1875 -1.11409,3.47422 -15.42438,14.75858 -16.4375,15.4375 -.0112,.0112 -.0829,.0519 -.0937,.0625 -.006,.006 -.0259,.026 -.0312,.0312 -.003,.002 -.0246,.0245 -.0312,.0312 -.003,.003 -.0284,.028 -.0312,.0312 -.003,0 -.0278,1.7e-4 -.0312,0 -.002,-7e-5 -.0241,-1.1e-4 -.0312,0 -.006,-.005 -.0257,-.0254 -.0312,-.0312 2.4e-4,-.003 -7e-5,-.0284 0,-.0312 -.006,-.0108 -.0256,-.0512 -.0312,-.0625 -.0431,-.28175 .0326,-.99908 0,-2.15625 -.094,-2.11441 .78114,-6.89788 .71875,-7.71875 3e-5,-.003 -9e-5,-.0281 0,-.0312 -.006,-.006 -.0254,-.0257 -.0312,-.0312 4e-5,-.003 -1.6e-4,-.0278 0,-.0312 -.007,1.4e-4 -.0302,9e-5 -.0312,0 -4.73023,3.05406 -6.29245,12.41569 -7.15625,15.1875 -11.9753,8.27414 -25.57358,14.4295 -33.40625,22.8125 -4.07911,6.37015 28.10432,-7.31473 31.84375,-8.96875 .0321,.0241 .0641,.063 .0937,.0937 .71089,.78237 .77161,3.51034 2.90625,5.96875 3.34533,4.53168 10.45552,7.32238 17.375,5.59375 11.60335,-4.19402 18.28817,-12.10192 25.09375,-20.875 .97266,-1.41514 2.49715,-2.5301 3.90625,-1.4375 4.67684,10.47043 18.16148,17.92045 35.59375,18.6875 4.03376,-4.90562 2.10463,-7.31767 .46875,-8.34375 -.50391,-.33487 -8.66984,-3.51837 -9.9375,-6.6875 -.79829,-2.94922 1.14263,-5.56476 5.03125,-7.53125 11.19314,-1.35366 22.19591,-2.85729 32.84375,-6.28125 .10784,-3.57718 2.21489,-8.92671 3.625,-11.25 .97909,-1.61201 1.60855,-1.77157 1.84375,-2 .008,-.008 .0246,-.023 .0312,-.0312 .003,-.004 .0284,-.0269 .0312,-.0312 .006,-.005 .0256,-.0257 .0312,-.0312 2e-5,-.0107 4.2e-4,-.0514 0,-.0625 .006,-.0708 -4.9e-4,-.19272 -.0312,-.3125 l -1.8125,-1.0625 -35.71875,-.15625 c -.44124,-.16987 -.76931,-.34037 -.96875,-.5 -.0152,-.0127 -.0489,-.0499 -.0625,-.0625 -.006,-.006 -.0253,-.025 -.0312,-.0312 -.006,-.006 -.0261,-.0251 -.0312,-.0312 -.005,-.0109 -.0263,-.0516 -.0312,-.0625 -.003,-.003 -.0277,-.0279 -.0312,-.0312 6e-5,-.003 -2.9e-4,-.0279 0,-.0312 -.003,-.003 -.0276,-.0279 -.0312,-.0312 2e-5,-.003 -1.8e-4,-.0279 0,-.0312 10e-6,-.003 -1.3e-4,-.0279 0,-.0312 0,-.003 -8e-5,-.0279 0,-.0312 -3.3e-4,-.005 1.2e-4,-.0265 0,-.0312 1.3e-4,-.002 9e-5,-.0246 0,-.0312 -5e-5,-.003 10e-5,-.0279 0,-.0312 -6e-5,-.003 1.4e-4,-.0279 0,-.0312 -7e-5,-.003 1.9e-4,-.0279 0,-.0312 .006,-.006 .0254,-.0256 .0312,-.0312 .008,-.0165 .0204,-.0462 .0312,-.0625 .17439,-.23501 .59702,-.45652 1.125,-.65625 8.52915,-1.16214 23.68157,-3.646 24.6875,-18.21875 -.15724,-7.59077 -3.24815,-12.56066 -12.5625,-13.9375 -6.84388,.52918 -11.72469,7.1491 -10.9375,14.4375 -.32757,1.96245 .66406,5.81356 -1.34375,6.25 -13.12838,1.19945 -27.45673,9.42514 -27.9375,15.3125 -.003,-5.2e-4 -.0285,1.4e-4 -.0312,0 -.005,.006 -.0258,.0256 -.0312,.0312 -.0101,.005 -.046,.0231 -.0625,.0312 -.0109,-1.5e-4 -.0515,4e-4 -.0625,0 -.0211,.007 -.0722,.0257 -.0937,.0312 -.006,5.4e-4 -.0232,-1.1e-4 -.0312,0 -.0178,-2.8e-4 -.0507,0 -.0625,0 -.006,-1.9e-4 -.0232,-2e-4 -.0312,0 -.0132,3.3e-4 -.0516,5.3e-4 -.0625,0 -.0339,-.007 -.0956,-.0238 -.125,-.0312 -.85384,-.23714 -1.95383,-1.64623 -1.78125,-3.625 -.49994,-10.17714 -3.81215,-21.69265 -9,-30.5625 -1.85126,-1.85083 -2.65786,-2.60077 -3.1875,-2.6875 -.0171,-.002 -.0459,8e-4 -.0625,0 -.0218,-9e-5 -.0656,2.5e-4 -.0937,0 -.005,1.4e-4 -.0264,-4e-4 -.0312,0 -.003,-9e-5 -.0283,2.5e-4 -.0312,0 -.004,.001 -.0274,-.001 -.0312,0 z m 34.1875,5.375 c -.7426,.12864 -1.4592,.74055 -1.71875,1.75 -.16327,.66121 .31746,1.76113 -.28125,2.09375 -.34371,.34673 -1.67943,.14493 -1.625,-1.6875 0,-.58359 -.42846,-1.22384 -.6875,-1.59375 -.26004,-.17034 -.40429,-.21875 -.875,-.21875 -.57352,.0232 -.59178,.17445 -.90625,.65625 -.13306,.49085 -.3125,.97487 -.3125,1.53125 -.0716,.65214 -.30147,.873 -.78125,.96875 -.53623,0 -.40933,.0584 -.84375,-.21875 -.25803,-.28222 -.59375,-.3932 -.59375,-.875 -10e-6,-.49893 -.0998,-1.2954 -.25,-1.625 -.22779,-.30036 -.61901,-.42542 -1.03125,-.53125 -2.24671,.008 -2.37902,2.5586 -2.25,3.53125 -.16833,.18345 -.28288,4.79048 2.78125,6.0625 4.11339,1.96145 13.91603,.80665 11.53125,-5.53125 -10e-6,-.58662 -.16029,-2.55652 -.21875,-3.09375 -.4198,-.9777 -1.1949,-1.34739 -1.9375,-1.21875 z m 137.96875,5.65625 c -.1034,-.0186 -.22236,-.0114 -.34375,.0312 0,0 -19.05852,13.55853 -19.53125,14.03125 -1.88988,1.68023 -.94442,7.58862 0,6.90625 1.36576,.52513 20.55438,-12.47801 20.1875,-14 .83627,.0491 1.23846,-6.68917 -.3125,-6.96875 z M 382,181.1875 c .77787,-.0825 1.79825,.18143 2.78125,.75 1.42278,.82293 2.29982,2.06568 2.1875,2.96875 -.004,.0245 .005,.0698 0,.0937 -.006,.0238 -.0554,.0705 -.0625,.0937 -.008,.023 -.0221,.0713 -.0312,.0937 -.006,.0148 -.0241,.048 -.0312,.0625 -.007,.0144 -.0231,.0484 -.0312,.0625 -.0466,.0763 -.12358,.15638 -.1875,.21875 -.68395,.63877 -2.26256,.54784 -3.75,-.3125 -1.40984,-.81544 -2.28097,-2.06805 -2.1875,-2.96875 .003,-.0246 .0267,-.0696 .0312,-.0937 .0236,-.11178 .0679,-.21374 .125,-.3125 .0204,-.0353 .0384,-.0926 .0625,-.125 .005,-.006 .0261,-.025 .0312,-.0312 .042,-.049 .10547,-.11459 .15625,-.15625 .22671,-.17829 .54802,-.30575 .90625,-.34375 z m -166.90625,3.4375 c -9.87576,.18043 -24.33775,12.94546 -24.71875,20.03125 10.42105,-5.0044 20.65659,-9.82122 31.25,-15 -1.70946,-2.55209 -.10363,-4.85183 -6.53125,-5.03125 z m 32,4.4375 c .96809,.0109 1.98913,.48893 2.53125,1.84375 .48784,1.2428 .0231,2.54242 -.5625,3.1875 -.003,.005 .003,.0263 0,.0312 -.009,.0144 -.0215,.049 -.0312,.0625 -.4145,.53404 -1.86967,.3125 -2.90625,.3125 -1.25388,-.0554 -1.87207,-.26122 -2.625,-1.28125 -.35982,-1.13393 .73594,-2.24809 1.21875,-3.09375 .005,-.008 .0263,-.0234 .0312,-.0312 .0524,-.0788 .13801,-.17326 .21875,-.25 .375,-.34347 1.0235,-.66453 1.71875,-.75 .13519,-.0166 .26795,-.0328 .40625,-.0312 z M 498.25,193 c -1.75597,.21654 -3.42524,1.87704 -2.65625,4.53125 -.4818,1.55928 2.38215,7.01147 3.125,9.90625 .66827,2.06022 -.86071,7.88718 .53125,8.5 1.28108,.68641 4.65018,-3.45933 4.53125,-8.65625 .37092,-2.67204 -.95304,-12.51735 -4.3125,-14.1875 -.38629,-.10791 -.81353,-.14372 -1.21875,-.0937 z m -213.3125,9.625 c -1.55201,.10848 -2.9369,.93803 -2.3125,3.125 -.0937,1.58649 4.3851,3.51558 4.65625,7.1875 .64004,1.51392 -.9575,6.36195 .375,6.8125 1.22364,.50396 2.92146,-3.35126 3.5625,-6.9375 .35479,-1.96447 -1.53669,-8.83585 -4.75,-10.0625 -.49313,-.10609 -1.01391,-.16116 -1.53125,-.125 z m 63.84375,8.71875 c .11777,-.008 .22161,7.2e-4 .34375,0 .0205,-1.3e-4 .0419,-9e-5 .0625,0 3.97934,1.0815 9.8454,1.19361 14.9375,1.71875 4.14766,.26307 6.19709,3.51026 2.3125,4.875 -3.83216,1.31236 -7.51411,2.33739 -7.53125,7.875 .50376,2.74306 .39705,4.18259 -.0312,4.84375 -.0335,.0496 -.0878,.11552 -.125,.15625 -.005,.006 -.0258,.0258 -.0312,.0312 -.006,.005 -.0256,.0261 -.0312,.0312 -.006,.005 -.0255,.0265 -.0312,.0312 -.006,.006 -.0257,.0257 -.0312,.0312 -.011,.005 -.0514,.0259 -.0625,.0312 -.0557,.0346 -.12681,.0715 -.1875,.0937 -.0536,.0182 -.1305,.0217 -.1875,.0312 -.91095,.1336 -2.23403,-.73511 -3.21875,-1.25 -2.36259,-1.69635 -8.99306,-5.80555 -9.9375,-14.625 -.13438,-1.99025 1.35538,-3.70637 3.75,-3.875 z m -155.9375,6.78125 c -.24858,.008 -.74605,.75061 -1.40625,1.59375 -5.87526,9.35969 -6.39777,23.33118 -3.15625,27.5 1.72257,1.96952 4.56276,2.8356 6.65625,2.21875 3.69106,-1.60061 5.3134,-9.07697 4.4375,-11.8125 -1.23169,-1.92819 -2.20782,-2.23366 -3.4375,-.59375 -2.59745,5.27352 -3.67845,1.66596 -3.90625,-1.28125 -.39814,-5.589 .14322,-10.73641 .75,-14.8125 .32304,-2.08895 .31108,-2.82031 .0625,-2.8125 z M 393,230.40625 c -.43689,-.0234 -.90278,.0449 -1.375,.28125 -.0927,0 -4.20581,2.7815 -5.53125,4.71875 -.80837,.61485 -.71671,1.14933 -.46875,2.21875 .62996,1.44841 1.74009,.99386 3,.3125 1.67217,-.2278 2.48084,.8672 2.34375,2.875 -.77208,2.50371 .34374,3.4365 .34375,3.59375 0,.15724 1.61011,1.53917 3.5,.4375 3.98941,-1.52299 6.47551,-3.00419 12.0625,-4.21875 1.46655,-.0292 1.38176,-3.95365 -.9375,-4.09375 -3.02582,.1522 -5.81792,.30676 -8.84375,2.6875 -1.86166,.43039 -2.18049,-.70275 -2.59375,-1.71875 -.47272,-2.52085 1.06446,-4.29763 .75,-6.1875 .0839,.0831 -.93932,-.83604 -2.25,-.90625 z m 128.15625,4.78125 c -.74222,.0232 -1.52383,.12602 -2.65625,.21875 -1.22462,.26006 -1.65225,.79656 -1.875,2.28125 .0877,2.25173 1.46489,2.14023 2.875,3.03125 .81645,1.03918 1.3476,1.98005 -.0625,3.6875 -1.33653,1.22464 -2.28848,1.90036 -3.625,3.125 -.631,1.07649 -1.02395,2.72991 .90625,3.25 3.56403,1.0019 11.8125,-4.35687 11.8125,-4.46875 1.33651,-1.00189 .89313,-2.90625 .78125,-2.90625 -.77912,-.89102 -2.53745,-.35586 -3.71875,-.5 -.56244,0 -2.40916,-.27339 -1.53125,-1.90625 .73278,-1.01601 1.00309,-1.62315 1.5,-2.875 .55638,-1.22465 .0673,-2.05048 -1.9375,-2.71875 -1.02105,-.18546 -1.72653,-.24193 -2.46875,-.21875 z M 467.625,343.59375 c -.008,.004 -.0234,.0258 -.0312,.0312 -5.92767,1.52097 -5.74326,7.67488 -1.9375,10.375 -62.59388,0 -158.64748,-1.06251 -179.25,-1.0625 -11.52474,0 -47.98698,-1.37501 -48.6875,-1.375 7.81957,11.43706 19.14703,13.76615 33.96875,14 27.80171,0 156.61986,-.34375 193.28125,-.34375 -2.6062,4.62748 .23645,12.07403 2.28125,13.4375 .0434,.0279 .11369,.0715 .15625,.0937 .0763,.038 .17693,.0749 .25,.0937 .0242,.006 .07,-.003 .0937,0 2.42711,.5725 3.49506,-1.18465 4.3125,-2.46875 3.93725,.34703 26.0968,.66757 28.125,-.0312 .007,-.003 .0245,-.0284 .0312,-.0312 1.3718,2.0189 2.73319,3.92638 5.34375,3.59375 4.56898,-.97972 8.16737,-1.47698 8.28125,-10.75 0,0 -.46704,-15.8023 -10.84375,-14.8125 -2.45533,.37092 -9.34375,1.0625 -9.34375,1.0625 -7.97177,-.94847 -13.81867,-1.04541 -22.78125,-1.375 .82723,-1.05023 2.28777,-5.30342 .5,-6.84375 -.46622,-.38767 -1.16171,-.60352 -2.125,-.53125 -.007,5e-4 -.0244,-8e-5 -.0312,0 -.0136,-6.8e-4 -.0492,.002 -.0625,0 -.007,-.002 -.0248,-.0293 -.0312,-.0312 -.0257,-.009 -.0692,-.0161 -.0937,-.0312 -.0486,-.033 -.11173,-.10294 -.15625,-.15625 -.011,-.0139 -.0517,-.0475 -.0625,-.0625 -.45322,-.65987 -.70068,-2.27772 -1,-2.6875 -.004,-.004 -.0277,-.0271 -.0312,-.0312 -.004,-.003 -.0276,-.0282 -.0312,-.0312 -.0109,-.007 -.0514,-.0277 -.0625,-.0312 -.004,-3.6e-4 -.0275,-6e-5 -.0312,0 -.004,9.1e-4 -.0274,-.001 -.0312,0 z m 4.25,22.59375 c .0109,-.005 .0202,.005 .0312,0 9.13192,.44551 17.71184,.0857 26.84375,.53125 1.44727,1.23032 .72345,4.04842 -.21875,4.5625 -.0422,.0211 -.11339,.051 -.15625,.0625 -.0344,.008 -.0905,-10e-4 -.125,0 -.0345,-7e-4 -.0905,.008 -.125,0 -2.96937,-.0746 -4.68687,-.14417 -7.65625,-.21875 -.005,-.14772 -.0215,-.30707 -.0625,-.4375 -.70371,-2.08565 -5.80081,-1.94608 -7,-.3125 -.0166,.0235 -.0475,.0696 -.0625,.0937 -.0192,.0325 -.0463,.0915 -.0625,.125 -.0193,.0422 -.0482,.11238 -.0625,.15625 -.0187,.0619 -.0229,.15372 -.0312,.21875 -.008,.0748 -.0379,.17113 -.0312,.25 -4.00857,.4818 -7.61644,-.13309 -11.625,-.28125 -1.17607,-1.46408 -1.03878,-4.11342 .34375,-4.75 z" fill="#fff" fill-rule="evenodd"/>
</svg>