<?xml version="1.0" encoding="UTF-8" standalone="no"?>
<!-- Created with Inkscape (http://www.inkscape.org/) -->
<svg
   xmlns:svg="http://www.w3.org/2000/svg"
   xmlns="http://www.w3.org/2000/svg"
   xmlns:xlink="http://www.w3.org/1999/xlink"
   version="1.0"
   width="470"
   height="550"
   viewBox="0 0 432 489"
   id="svg2"
   xml:space="preserve"
   style="overflow:visible"><defs
     id="defs7" /><g
     transform="translate(-1060,62.761315)"
     id="g3478"><g
       transform="translate(-9.9999999e-6,0)"
       id="g3459"><path
         d="M 1275.8281,89.765622 L 1255.7969,98.578122 L 1233.1094,97.765622 L 1215.5156,115.20313 L 1191.5781,124.82813 L 1183.6406,145.23438 L 1166.9844,160.70313 L 1166.9219,185.35938 L 1156.7656,209.20313 L 1165.5781,229.17188 L 1164.7344,251.92188 L 1182.1719,269.45313 L 1191.8281,293.45313 L 1212.4531,301.45313 L 1227.3281,317.85938 L 1253.2656,318.29688 L 1275.8281,328.23438 L 1296.7344,319.32813 L 1318.5782,320.39063 L 1337.2032,302.35938 L 1360.2032,293.45313 L 1368.7032,272.32813 L 1384.8282,257.70313 L 1385.2657,231.85938 L 1395.2344,209.20313 L 1386.3282,188.26563 L 1387.3907,166.45313 L 1369.4532,147.95313 L 1360.4532,124.82813 L 1339.6407,116.45313 L 1324.3282,100.01563 L 1299.6406,99.890622 L 1275.8281,89.765622 z M 1274.9531,98.859372 C 1335.1319,98.859362 1383.9532,147.71187 1383.9532,207.89063 C 1383.9531,245.94034 1364.4305,279.44829 1334.8594,298.95313 C 1317.6613,310.29681 1297.0822,316.89063 1274.9531,316.89063 C 1214.7744,316.89062 1165.9219,268.06939 1165.9219,207.89063 C 1165.9219,147.71188 1214.7743,98.859372 1274.9531,98.859372 z"
         id="path3331"
         style="opacity:1;fill:#000000;fill-opacity:1;fill-rule:evenodd;stroke:none;stroke-width:1px;stroke-linecap:butt;stroke-linejoin:miter;stroke-opacity:1" /><g
         transform="translate(1321.8174,32.952307)"
         id="g3317"
         style="opacity:1"><path
           d="M 660,189 A 160,160 0 1 1 340,189 A 160,160 0 1 1 660,189 z"
           transform="matrix(0.9814241,0,0,0.9814241,-536.52944,-9.4414622)"
           id="path3269"
           style="fill:none;fill-opacity:1;stroke:#000000;stroke-width:3.05678248;stroke-miterlimit:4;stroke-dasharray:none;stroke-opacity:1" /><path
           d="M -45.817394,25.016439 C -129.18541,25.016439 -196.84863,92.679673 -196.84864,176.0477 C -196.84864,259.41571 -129.18541,327.07895 -45.817394,327.07895 C 37.550618,327.07895 105.21386,259.41571 105.21386,176.0477 C 105.21386,92.679677 37.550618,25.016442 -45.817394,25.016439 z M -45.817394,56.828939 C 19.986896,56.828937 73.401357,110.24341 73.401357,176.0477 C 73.401357,241.85199 19.986897,295.26645 -45.817394,295.26645 C -111.62169,295.26646 -165.03614,241.85199 -165.03614,176.0477 C -165.03614,110.24341 -111.62169,56.828939 -45.817394,56.828939 z"
           id="path3271"
           style="fill:#e1d5ab;fill-opacity:1;stroke:#000000;stroke-width:2;stroke-miterlimit:4;stroke-dasharray:none;stroke-opacity:1" /><g
           transform="translate(-529.52519,-15.53846)"
           id="g3306"><g
             id="g3294"><g
               id="g3286"><g
                 id="g3280"><path
                   d="M 483.70779,40.485389 L 483.70779,72.503246"
                   id="path3276"
                   style="fill:none;fill-rule:evenodd;stroke:#af9d7d;stroke-width:2;stroke-linecap:butt;stroke-linejoin:miter;stroke-miterlimit:4;stroke-dasharray:none;stroke-opacity:1" /><use
                   transform="translate(0,270.18367)"
                   id="use3278"
                   x="0"
                   y="0"
                   width="432"
                   height="489"
                   xlink:href="#path3276" /></g><use
                 transform="matrix(0,-1,1,0,292.12164,675.29394)"
                 id="use3284"
                 x="0"
                 y="0"
                 width="432"
                 height="489"
                 xlink:href="#g3280" /></g><use
               transform="matrix(0.7071068,-0.7071068,0.7071068,0.7071068,6.2028647,398.14735)"
               id="use3292"
               x="0"
               y="0"
               width="432"
               height="489"
               xlink:href="#g3286" /></g><use
             transform="matrix(0.9659258,-0.258819,0.258819,0.9659258,-33.104202,131.72093)"
             id="use3302"
             x="0"
             y="0"
             width="432"
             height="489"
             xlink:href="#g3294" /><use
             transform="matrix(0.9659258,-0.258819,0.258819,0.9659258,-33.104207,131.72092)"
             id="use3304"
             x="0"
             y="0"
             width="432"
             height="489"
             xlink:href="#use3302" /></g></g></g><path
       d="M 1253.9673,-24.095042 C 1252.256,-24.705098 1251.2573,-25.712006 1251.2248,-26.860207 C 1251.1755,-28.59863 1252.6942,-29.060889 1254.4077,-27.829003 C 1256.1974,-26.542264 1257.169,-26.056929 1257.963,-26.05295 C 1262.0649,-26.032392 1265.0428,-32.376537 1268.6632,-48.849003 C 1269.5769,-53.005951 1270.4953,-57.530998 1270.4953,-57.875515 C 1270.4953,-58.39809 1264.5149,-57.028145 1262.6197,-56.071408 C 1258.6035,-54.044037 1257.1921,-50.105137 1259.215,-46.569478 C 1260.2989,-44.675011 1259.8569,-43.329003 1258.1509,-43.329003 C 1256.5396,-43.329003 1255.6191,-44.988768 1255.6166,-47.898579 C 1255.6122,-53.115529 1258.8733,-57.264295 1264.1018,-58.693356 C 1265.4518,-59.062344 1271.1815,-60.073514 1273.9464,-60.430722 C 1274.3398,-60.481545 1274.5479,-59.905458 1275.573,-55.929003 C 1276.7885,-51.214107 1278.3791,-46.264764 1281.1995,-38.421235 L 1282.8347,-33.87347 L 1284.9167,-42.261235 C 1286.0618,-46.874508 1287.2933,-51.459003 1287.6533,-52.449003 C 1289.2853,-56.936478 1291.391,-59.872123 1293.7151,-60.900199 C 1296.0661,-61.940154 1299.8221,-61.626885 1300.5145,-60.333094 C 1300.9135,-59.587484 1300.8487,-58.492184 1300.3746,-57.968281 C 1299.8095,-57.343772 1298.7001,-57.351581 1297.0842,-57.991443 C 1295.5826,-58.58601 1294.1511,-58.510826 1293.1372,-57.784151 C 1290.7284,-56.057657 1288.104,-48.192804 1284.0694,-30.609002 C 1283.3274,-27.375002 1282.684,-24.621002 1282.6398,-24.489002 C 1282.5956,-24.357002 1282.2659,-24.897002 1281.9071,-25.689002 C 1278.7037,-32.760768 1276.6946,-38.188152 1273.4769,-48.462154 L 1271.8316,-53.715305 L 1271.5547,-52.542154 C 1271.4023,-51.896921 1270.9254,-49.857003 1270.4949,-48.009003 C 1269.2332,-42.593712 1266.9311,-33.986525 1266.2583,-32.169002 C 1264.1877,-26.575807 1261.306,-23.917898 1257.0998,-23.721864 C 1255.7208,-23.657596 1254.9302,-23.751789 1253.9673,-24.095042 z"
       id="path3476"
       style="fill:#000000" /><g
       id="g3252"><g
         transform="translate(396,-130)"
         id="g3244"><g
           id="g3236"><g
             transform="translate(166,-96)"
             id="g3230"><path
               d="M 714,435 L 800,349 L 752,425 L 714,435 z"
               id="path3226"
               style="fill:#c1b15c;fill-opacity:1;fill-rule:evenodd;stroke:none;stroke-width:1px;stroke-linecap:butt;stroke-linejoin:miter;stroke-opacity:1" /><path
               d="M 714,435 L 800,349 L 724,397 L 714,435 z"
               id="path3228"
               style="fill:#000000;fill-opacity:1;fill-rule:evenodd;stroke:none;stroke-width:1px;stroke-linecap:butt;stroke-linejoin:miter;stroke-opacity:1" /></g><use
             transform="matrix(-1,0,0,-1,1760,678)"
             id="use3234"
             x="0"
             y="0"
             width="432"
             height="489"
             xlink:href="#g3230" /></g><use
           transform="matrix(0,-1,1,0,541,1219)"
           id="use3242"
           x="0"
           y="0"
           width="432"
           height="489"
           xlink:href="#g3236" /></g><g
         transform="translate(636,44)"
         id="g3215"><g
           id="g3206"><path
             d="M 640,165 L 662,143 L 640,-51 L 640,165 z"
             id="path3160"
             style="fill:#c1b15c;fill-opacity:1;fill-rule:evenodd;stroke:none;stroke-width:1px;stroke-linecap:butt;stroke-linejoin:miter;stroke-opacity:1" /><path
             d="M 640,165 L 618,143 L 640,-51 L 640,165 z"
             id="path3162"
             style="fill:#000000;fill-opacity:1;fill-rule:evenodd;stroke:none;stroke-width:1px;stroke-linecap:butt;stroke-linejoin:miter;stroke-opacity:1" /><g
             transform="matrix(-1,0,0,-1,1180,424)"
             id="use3168"><path
               d="M 540,259 L 562,237 L 540,43 L 540,259 z"
               id="path3200"
               style="fill:#c1b15c;fill-opacity:1;fill-rule:evenodd;stroke:none;stroke-width:1px;stroke-linecap:butt;stroke-linejoin:miter;stroke-opacity:1" /><path
               d="M 540,259 L 518,237 L 540,43 L 540,259 z"
               id="path3202"
               style="fill:#000000;fill-opacity:1;fill-rule:evenodd;stroke:none;stroke-width:1px;stroke-linecap:butt;stroke-linejoin:miter;stroke-opacity:1" /></g></g><use
           transform="matrix(0,-1,1,0,475,805)"
           id="use3213"
           x="0"
           y="0"
           width="432"
           height="489"
           xlink:href="#g3206" /></g></g></g>


</svg>